<svg width="120" height="32" viewBox="0 0 120 32" xmlns="http://www.w3.org/2000/svg">
  <!-- Blue network part -->
  <g transform="translate(2, 4)">
    <!-- Network nodes (blue) -->
    <circle cx="8" cy="6" r="1.5" fill="#2563eb"/>
    <circle cx="16" cy="4" r="1.5" fill="#2563eb"/>
    <circle cx="22" cy="8" r="1.5" fill="#2563eb"/>
    <circle cx="20" cy="14" r="1.5" fill="#2563eb"/>
    <circle cx="12" cy="16" r="1.5" fill="#2563eb"/>
    <circle cx="6" cy="14" r="1.5" fill="#2563eb"/>
    <circle cx="4" cy="10" r="1.5" fill="#2563eb"/>
    <circle cx="18" cy="10" r="1.5" fill="#2563eb"/>
    <circle cx="13" cy="11" r="1.5" fill="#2563eb"/>
    
    <!-- Network connections (blue) -->
    <line x1="8" y1="6" x2="16" y2="4" stroke="#2563eb" stroke-width="1"/>
    <line x1="16" y1="4" x2="22" y2="8" stroke="#2563eb" stroke-width="1"/>
    <line x1="22" y1="8" x2="20" y2="14" stroke="#2563eb" stroke-width="1"/>
    <line x1="20" y1="14" x2="12" y2="16" stroke="#2563eb" stroke-width="1"/>
    <line x1="12" y1="16" x2="6" y2="14" stroke="#2563eb" stroke-width="1"/>
    <line x1="6" y1="14" x2="4" y2="10" stroke="#2563eb" stroke-width="1"/>
    <line x1="4" y1="10" x2="8" y2="6" stroke="#2563eb" stroke-width="1"/>
    <line x1="8" y1="6" x2="18" y2="10" stroke="#2563eb" stroke-width="1"/>
    <line x1="18" y1="10" x2="13" y2="11" stroke="#2563eb" stroke-width="1"/>
    <line x1="13" y1="11" x2="6" y2="14" stroke="#2563eb" stroke-width="1"/>
    <line x1="18" y1="10" x2="22" y2="8" stroke="#2563eb" stroke-width="1"/>
  </g>
  
  <!-- Orange network part -->
  <g transform="translate(0, 12)">
    <!-- Network nodes (orange) -->
    <circle cx="4" cy="8" r="1.5" fill="#ea580c"/>
    <circle cx="10" cy="10" r="1.5" fill="#ea580c"/>
    <circle cx="8" cy="4" r="1.5" fill="#ea580c"/>
    <circle cx="14" cy="6" r="1.5" fill="#ea580c"/>
    <circle cx="12" cy="12" r="1.5" fill="#ea580c"/>
    <circle cx="6" cy="14" r="1.5" fill="#ea580c"/>
    <circle cx="2" cy="12" r="1.5" fill="#ea580c"/>
    
    <!-- Network connections (orange) -->
    <line x1="4" y1="8" x2="10" y2="10" stroke="#ea580c" stroke-width="1"/>
    <line x1="10" y1="10" x2="8" y2="4" stroke="#ea580c" stroke-width="1"/>
    <line x1="8" y1="4" x2="14" y2="6" stroke="#ea580c" stroke-width="1"/>
    <line x1="14" y1="6" x2="12" y2="12" stroke="#ea580c" stroke-width="1"/>
    <line x1="12" y1="12" x2="6" y2="14" stroke="#ea580c" stroke-width="1"/>
    <line x1="6" y1="14" x2="2" y2="12" stroke="#ea580c" stroke-width="1"/>
    <line x1="2" y1="12" x2="4" y2="8" stroke="#ea580c" stroke-width="1"/>
  </g>
  
  <!-- Text -->
  <text x="32" y="14" font-family="'Inter', 'Segoe UI', sans-serif" font-size="12" font-weight="700" fill="#2563eb">Skill</text>
  <text x="65" y="14" font-family="'Inter', 'Segoe UI', sans-serif" font-size="12" font-weight="700" fill="#ea580c">Net</text>
  <text x="32" y="24" font-family="'Inter', 'Segoe UI', sans-serif" font-size="7" font-weight="400" fill="#6b7280">Professional Network</text>
</svg>